<svg width="105" height="50" viewBox="0 0 105 50" fill="none" xmlns="http://www.w3.org/2000/svg">
<g id="Group 3">
<g id="Xplanner">
<path d="M47.8828 46.1412C47.9566 46.2462 47.9936 46.3407 47.9936 46.4247C47.9936 46.5717 47.9408 46.6925 47.8353 46.787C47.7404 46.871 47.6296 46.913 47.503 46.913C47.3448 46.913 47.2182 46.8447 47.1233 46.7082L43.7054 42.0934L40.3033 46.6925C40.2084 46.8395 40.0818 46.913 39.9235 46.913C39.7969 46.913 39.6914 46.871 39.6071 46.787C39.5332 46.6925 39.4963 46.5927 39.4963 46.4877C39.4963 46.3827 39.5332 46.2777 39.6071 46.1727L43.1674 41.3531L39.5912 36.5335C39.5174 36.4495 39.4805 36.355 39.4805 36.25C39.4805 36.124 39.5279 36.0138 39.6229 35.9193C39.7284 35.8248 39.8444 35.7775 39.971 35.7775C40.1292 35.7775 40.2611 35.8405 40.3666 35.9665L43.7687 40.5814L47.1549 35.9823C47.2709 35.8458 47.3975 35.7775 47.5347 35.7775C47.6613 35.7775 47.7668 35.8195 47.8511 35.9035C47.9461 35.977 47.9936 36.0715 47.9936 36.187C47.9936 36.271 47.9566 36.3708 47.8828 36.4863L44.3225 41.3216L47.8828 46.1412Z" fill="white"/>
<path d="M53.6338 38.7386C54.33 38.7386 54.963 38.9171 55.5326 39.2741C56.1023 39.6206 56.5453 40.1089 56.8618 40.7389C57.1888 41.3584 57.3523 42.0566 57.3523 42.8337C57.3523 43.6212 57.1888 44.3299 56.8618 44.9599C56.5453 45.5795 56.1023 46.0677 55.5326 46.4247C54.9735 46.7817 54.3459 46.9602 53.6496 46.9602C53.0378 46.9602 52.4734 46.8185 51.9565 46.535C51.4501 46.241 51.044 45.8525 50.7381 45.3695V49.5275C50.7381 49.664 50.6906 49.7743 50.5957 49.8583C50.5113 49.9528 50.4005 50 50.2634 50C50.1262 50 50.0102 49.9528 49.9153 49.8583C49.8309 49.7743 49.7887 49.664 49.7887 49.5275V39.2583C49.7887 39.1218 49.8309 39.0063 49.9153 38.9118C50.0102 38.8173 50.1262 38.7701 50.2634 38.7701C50.4005 38.7701 50.5113 38.8173 50.5957 38.9118C50.6906 39.0063 50.7381 39.1218 50.7381 39.2583V40.3294C51.0124 39.8359 51.4079 39.4473 51.9249 39.1638C52.4418 38.8803 53.0114 38.7386 53.6338 38.7386ZM53.5547 46.0782C54.1032 46.0782 54.5938 45.9417 55.0263 45.6687C55.4693 45.3852 55.8122 44.9967 56.0548 44.5032C56.308 44.0097 56.4346 43.4532 56.4346 42.8337C56.4346 42.2246 56.308 41.6786 56.0548 41.1956C55.8122 40.7021 55.4693 40.3189 55.0263 40.0459C54.5938 39.7624 54.1032 39.6206 53.5547 39.6206C52.9956 39.6206 52.4945 39.7571 52.0514 40.0301C51.6084 40.3031 51.2655 40.6864 51.0229 41.1799C50.7803 41.6629 50.659 42.2141 50.659 42.8337C50.659 43.4532 50.7803 44.0097 51.0229 44.5032C51.2655 44.9967 51.6084 45.3852 52.0514 45.6687C52.4945 45.9417 52.9956 46.0782 53.5547 46.0782Z" fill="white"/>
<path d="M60.3519 46.3775C60.3519 46.514 60.3044 46.6295 60.2095 46.724C60.1251 46.808 60.0143 46.85 59.8772 46.85C59.7401 46.85 59.624 46.808 59.5291 46.724C59.4447 46.6295 59.4025 46.514 59.4025 46.3775V35.6673C59.4025 35.5308 59.4447 35.4205 59.5291 35.3365C59.624 35.242 59.7401 35.1948 59.8772 35.1948C60.0143 35.1948 60.1251 35.242 60.2095 35.3365C60.3044 35.4205 60.3519 35.5308 60.3519 35.6673V46.3775Z" fill="white"/>
<path d="M69.5212 38.8016C69.6583 38.8016 69.7691 38.8488 69.8535 38.9433C69.9484 39.0378 69.9959 39.1533 69.9959 39.2898V46.3775C69.9959 46.514 69.9484 46.6295 69.8535 46.724C69.7691 46.808 69.6583 46.85 69.5212 46.85C69.384 46.85 69.268 46.808 69.1731 46.724C69.0887 46.6295 69.0465 46.514 69.0465 46.3775V45.3222C68.7827 45.7947 68.3872 46.1937 67.8597 46.5192C67.3322 46.8447 66.7573 47.0075 66.1349 47.0075C65.4281 47.0075 64.7899 46.8237 64.2203 46.4562C63.6612 46.0887 63.2181 45.5847 62.8911 44.9442C62.5746 44.3037 62.4164 43.5844 62.4164 42.7864C62.4164 41.9884 62.5799 41.2744 62.9069 40.6444C63.2339 40.0039 63.677 39.5051 64.2361 39.1481C64.8057 38.7911 65.4334 38.6126 66.1191 38.6126C66.752 38.6126 67.3322 38.7648 67.8597 39.0693C68.3872 39.3738 68.7827 39.7728 69.0465 40.2664V39.2898C69.0465 39.1533 69.0887 39.0378 69.1731 38.9433C69.268 38.8488 69.384 38.8016 69.5212 38.8016ZM66.2299 46.1255C66.7784 46.1255 67.269 45.9837 67.7015 45.7002C68.1445 45.4062 68.4874 45.0072 68.73 44.5032C68.9832 43.9887 69.1098 43.4164 69.1098 42.7864C69.1098 42.1774 68.9832 41.6209 68.73 41.1169C68.4874 40.6129 68.1445 40.2191 67.7015 39.9356C67.269 39.6416 66.7784 39.4946 66.2299 39.4946C65.6813 39.4946 65.1855 39.6363 64.7425 39.9199C64.3099 40.2034 63.9671 40.5971 63.7139 41.1011C63.4713 41.5946 63.35 42.1564 63.35 42.7864C63.35 43.4164 63.4713 43.9887 63.7139 44.5032C63.9565 45.0072 64.2941 45.4062 64.7266 45.7002C65.1697 45.9837 65.6708 46.1255 66.2299 46.1255Z" fill="white"/>
<path d="M76.2867 38.6126C77.2678 38.6126 77.9851 38.9013 78.4388 39.4788C78.9029 40.0459 79.135 40.8019 79.135 41.7469V46.3775C79.135 46.514 79.0875 46.6295 78.9926 46.724C78.8976 46.808 78.7869 46.85 78.6603 46.85C78.5231 46.85 78.4071 46.808 78.3122 46.724C78.2278 46.6295 78.1856 46.514 78.1856 46.3775V41.7941C78.1856 41.1116 78.0115 40.5604 77.6634 40.1404C77.3258 39.7098 76.7984 39.4946 76.081 39.4946C75.6274 39.4946 75.1949 39.5996 74.7835 39.8096C74.3826 40.0196 74.0556 40.3031 73.8024 40.6601C73.5493 41.0066 73.4227 41.3846 73.4227 41.7941V46.3775C73.4227 46.514 73.3752 46.6295 73.2803 46.724C73.1959 46.808 73.0851 46.85 72.948 46.85C72.8108 46.85 72.6948 46.808 72.5999 46.724C72.5155 46.6295 72.4733 46.514 72.4733 46.3775V39.3213C72.4733 39.1848 72.5155 39.0746 72.5999 38.9906C72.6948 38.8961 72.8108 38.8488 72.948 38.8488C73.0851 38.8488 73.1959 38.8961 73.2803 38.9906C73.3752 39.0746 73.4227 39.1848 73.4227 39.3213V40.1876C73.7075 39.7361 74.1136 39.3633 74.6411 39.0693C75.1791 38.7648 75.7276 38.6126 76.2867 38.6126Z" fill="white"/>
<path d="M85.4348 38.6126C86.4158 38.6126 87.1332 38.9013 87.5868 39.4788C88.0509 40.0459 88.283 40.8019 88.283 41.7469V46.3775C88.283 46.514 88.2355 46.6295 88.1406 46.724C88.0457 46.808 87.9349 46.85 87.8083 46.85C87.6712 46.85 87.5551 46.808 87.4602 46.724C87.3758 46.6295 87.3336 46.514 87.3336 46.3775V41.7941C87.3336 41.1116 87.1595 40.5604 86.8114 40.1404C86.4738 39.7098 85.9464 39.4946 85.2291 39.4946C84.7754 39.4946 84.3429 39.5996 83.9315 39.8096C83.5307 40.0196 83.2036 40.3031 82.9505 40.6601C82.6973 41.0066 82.5707 41.3846 82.5707 41.7941V46.3775C82.5707 46.514 82.5232 46.6295 82.4283 46.724C82.3439 46.808 82.2331 46.85 82.096 46.85C81.9588 46.85 81.8428 46.808 81.7479 46.724C81.6635 46.6295 81.6213 46.514 81.6213 46.3775V39.3213C81.6213 39.1848 81.6635 39.0746 81.7479 38.9906C81.8428 38.8961 81.9588 38.8488 82.096 38.8488C82.2331 38.8488 82.3439 38.8961 82.4283 38.9906C82.5232 39.0746 82.5707 39.1848 82.5707 39.3213V40.1876C82.8555 39.7361 83.2617 39.3633 83.7891 39.0693C84.3271 38.7648 84.8757 38.6126 85.4348 38.6126Z" fill="white"/>
<path d="M97.6051 42.3611C97.6051 42.4872 97.5576 42.5974 97.4627 42.6919C97.3677 42.7759 97.257 42.8179 97.1304 42.8179H91.1491C91.1491 43.4479 91.2756 44.0149 91.5288 44.5189C91.7925 45.0124 92.1618 45.4062 92.6365 45.7002C93.1217 45.9837 93.6914 46.1255 94.3454 46.1255C94.8518 46.1255 95.3054 46.0205 95.7062 45.8105C96.1071 45.6005 96.4289 45.3327 96.6715 45.0072C96.7875 44.9127 96.8983 44.8654 97.0038 44.8654C97.1093 44.8654 97.2042 44.9074 97.2886 44.9914C97.373 45.0755 97.4152 45.17 97.4152 45.275C97.4152 45.3905 97.3624 45.5007 97.257 45.6057C96.9194 46.0152 96.4921 46.3512 95.9752 46.6137C95.4689 46.8762 94.9309 47.0075 94.3612 47.0075C93.549 47.0075 92.8316 46.8342 92.2092 46.4877C91.5868 46.1412 91.1016 45.6582 90.7535 45.0387C90.4053 44.4087 90.2313 43.6842 90.2313 42.8652C90.2313 42.0041 90.4001 41.2534 90.7376 40.6129C91.0858 39.9619 91.5446 39.4683 92.1143 39.1323C92.6839 38.7858 93.2905 38.6126 93.934 38.6126C94.5669 38.6126 95.1577 38.7596 95.7062 39.0536C96.2653 39.3476 96.7189 39.7781 97.0671 40.3451C97.4152 40.9121 97.5945 41.5841 97.6051 42.3611ZM93.934 39.5261C93.3222 39.5261 92.7525 39.7361 92.225 40.1561C91.7081 40.5761 91.3759 41.1799 91.2282 41.9674H96.624V41.8414C96.5713 41.3689 96.413 40.9594 96.1493 40.6129C95.8856 40.2559 95.5533 39.9881 95.1524 39.8096C94.7621 39.6206 94.356 39.5261 93.934 39.5261Z" fill="white"/>
<path d="M103.344 38.6126C103.555 38.6126 103.745 38.6546 103.913 38.7386C104.082 38.8226 104.167 38.9486 104.167 39.1166C104.167 39.2636 104.124 39.3843 104.04 39.4788C103.956 39.5628 103.855 39.6048 103.739 39.6048C103.687 39.6048 103.581 39.5786 103.423 39.5261C103.275 39.4736 103.133 39.4473 102.996 39.4473C102.605 39.4473 102.215 39.5996 101.825 39.9041C101.445 40.1981 101.128 40.5814 100.875 41.0539C100.633 41.5264 100.511 42.0041 100.511 42.4872V46.3775C100.511 46.514 100.464 46.6295 100.369 46.724C100.284 46.808 100.174 46.85 100.037 46.85C99.8994 46.85 99.7834 46.808 99.6885 46.724C99.6041 46.6295 99.5619 46.514 99.5619 46.3775V39.3213C99.5619 39.1848 99.6041 39.0746 99.6885 38.9906C99.7834 38.8961 99.8994 38.8488 100.037 38.8488C100.174 38.8488 100.284 38.8961 100.369 38.9906C100.464 39.0746 100.511 39.1848 100.511 39.3213V40.7074C100.754 40.1089 101.118 39.6153 101.603 39.2268C102.099 38.8278 102.679 38.6231 103.344 38.6126Z" fill="white"/>
</g>
<g id="Group 5">
<path id="Vector" d="M33.0371 37.527C32.069 35.858 29.9249 35.2861 28.2481 36.2498C26.5712 37.2134 25.9967 39.3476 26.9648 41.0167L29.3004 45.0432C30.2685 46.7122 32.4126 47.2841 34.0894 46.3205C35.7663 45.3568 36.3408 43.2226 35.3727 41.5536L33.0371 37.527Z" fill="#0CAF60"/>
<path id="Subtract" fill-rule="evenodd" clip-rule="evenodd" d="M48.4382 6.17721C51.0748 9.16723 52.4254 13.0688 52.1989 17.0408C51.961 21.0803 50.1223 24.8606 47.0865 27.5518C44.0507 30.2429 40.066 31.6248 36.0074 31.3941C35.6701 31.3742 35.2952 31.3489 34.8919 31.3217C31.7136 31.107 26.7795 30.7737 24.6823 32.0916C22.2678 33.6034 21.7647 36.1823 21.573 37.165C21.5593 37.2354 21.5472 37.2975 21.536 37.3505C20.3893 42.6852 16.0635 47.8398 10.0773 47.4921C8.63428 47.4032 7.22424 47.0247 5.93202 46.3793C4.63981 45.7339 3.49211 44.8349 2.558 43.7366L2.3525 43.4788C1.44884 42.3548 0.782778 41.0606 0.394319 39.6739C0.00585966 38.2872 -0.0969758 36.8366 0.0919874 35.4094C0.907827 29.4958 6.8242 26.268 12.3049 26.178C12.3603 26.1773 12.4253 26.1775 12.499 26.1776C13.5074 26.1796 16.1426 26.1848 18.096 24.1223C19.7913 22.3392 20.4147 17.5017 20.8203 14.3549C20.8744 13.9352 20.9246 13.5456 20.973 13.1973C21.3741 10.2206 22.6509 7.4285 24.6429 5.17257C26.6348 2.91664 29.2528 1.29772 32.1671 0.519641C35.0815 -0.258441 38.162 -0.160906 41.0207 0.799966C43.8795 1.76084 46.3888 3.54209 48.2327 5.91947L48.4382 6.17721ZM28.4934 10.0465C27.3248 11.5756 26.638 13.4152 26.5198 15.3328C26.4413 16.6062 26.6156 17.8825 27.0327 19.0889C27.4498 20.2953 28.1015 21.408 28.9507 22.3636C29.7999 23.3193 30.8299 24.099 31.9819 24.6584C33.1339 25.2177 34.3852 25.5458 35.6646 25.6237C37.5911 25.741 39.5093 25.2871 41.1767 24.3194C42.8441 23.3516 44.1857 21.9135 45.0319 20.1868C45.8782 18.4601 46.191 16.5224 45.9309 14.6188C45.6708 12.7151 44.8495 10.9309 43.5707 9.49191C42.2919 8.05287 40.6132 7.02358 38.7467 6.53419C36.8803 6.04479 34.91 6.11727 33.0849 6.74246C31.2598 7.36765 29.662 8.51747 28.4934 10.0465Z" fill="#0CAF60"/>
</g>
</g>
</svg>
